<svg xmlns="http://www.w3.org/2000/svg" width="1440" height="420" viewBox="0 0 1440 420">
  <defs>
    <filter id="softShadow" x="-30%" y="-30%" width="160%" height="160%">
      <feDropShadow dx="0" dy="18" stdDeviation="18" flood-color="#433791" flood-opacity=".14"/>
    </filter>
    <linearGradient id="violet" x1="0" y1="0" x2="1" y2="1">
      <stop offset="0" stop-color="#6C63E8"/><stop offset="1" stop-color="#5046C8"/>
    </linearGradient>
  </defs>
  
  <path d="M42 278 C220 120 390 355 566 205 C735 60 888 320 1058 186 C1188 86 1300 138 1396 82" fill="none" stroke="#6C63E8" stroke-width="7" stroke-linecap="round" stroke-dasharray="14 18" opacity=".92"/>
    <path d="M42 278 C220 120 390 355 566 205 C735 60 888 320 1058 186 C1188 86 1300 138 1396 82" fill="none" stroke="#887CF6" stroke-width="2" stroke-linecap="round" opacity=".8"/>
    <circle cx="42" cy="278" r="18" fill="#DDF7F3" stroke="#0FB5A6" stroke-width="3"/><path d="M 35 278 l 5 6 l 10 -13" fill="none" stroke="#0FB5A6" stroke-width="3" stroke-linecap="round" stroke-linejoin="round"/><circle cx="566" cy="205" r="18" fill="#DDF7F3" stroke="#0FB5A6" stroke-width="3"/><path d="M 559 205 l 5 6 l 10 -13" fill="none" stroke="#0FB5A6" stroke-width="3" stroke-linecap="round" stroke-linejoin="round"/><circle cx="1058" cy="186" r="18" fill="#DDF7F3" stroke="#0FB5A6" stroke-width="3"/><path d="M 1051 186 l 5 6 l 10 -13" fill="none" stroke="#0FB5A6" stroke-width="3" stroke-linecap="round" stroke-linejoin="round"/><circle cx="1396" cy="82" r="18" fill="#DDF7F3" stroke="#0FB5A6" stroke-width="3"/><path d="M 1389 82 l 5 6 l 10 -13" fill="none" stroke="#0FB5A6" stroke-width="3" stroke-linecap="round" stroke-linejoin="round"/>
  </svg>