<svg xmlns="http://www.w3.org/2000/svg" width="760" height="500" viewBox="0 0 760 500">
  <defs>
    <filter id="softShadow" x="-30%" y="-30%" width="160%" height="160%">
      <feDropShadow dx="0" dy="18" stdDeviation="18" flood-color="#433791" flood-opacity=".14"/>
    </filter>
    <linearGradient id="violet" x1="0" y1="0" x2="1" y2="1">
      <stop offset="0" stop-color="#6C63E8"/><stop offset="1" stop-color="#5046C8"/>
    </linearGradient>
  </defs>
  
  <g filter="url(#softShadow)">
      <rect x="80" y="56" width="470" height="152" rx="24" fill="#FFFFFF" stroke="#E7E8F0"/>
      <circle cx="126" cy="108" r="24" fill="#EAE8FF"/><path d="M117 107 h18 M126 98 v18" stroke="#6C63E8" stroke-width="4" stroke-linecap="round"/>
      <text x="170" y="104" text-anchor="start" font-family="Sora, Inter, Arial, sans-serif" font-size="28" font-weight="800" fill="#080F14">BrightFold Care</text>
      <text x="170" y="143" text-anchor="start" font-family="Sora, Inter, Arial, sans-serif" font-size="18" font-weight="600" fill="#495467">1.1 km · ₹79/kg · 5-6 PM slot</text>
      <rect x="170" y="163" width="126" height="38" rx="19" fill="#DDF7F3" stroke="#DDF7F3"/>
  <text x="233" y="187" text-anchor="middle" font-family="Sora, Inter, Arial, sans-serif" font-size="15" font-weight="700" fill="#0FB5A6">Verified</text>
      <rect x="178" y="244" width="500" height="172" rx="24" fill="#EAE8FF" stroke="#887CF6"/>
      <circle cx="224" cy="304" r="24" fill="#FFFFFF"/><path d="M215 304 h18 M224 295 v18" stroke="#6C63E8" stroke-width="4" stroke-linecap="round"/>
      <text x="268" y="300" text-anchor="start" font-family="Sora, Inter, Arial, sans-serif" font-size="30" font-weight="800" fill="#080F14">UrbanPress Studio</text>
      <text x="268" y="342" text-anchor="start" font-family="Sora, Inter, Arial, sans-serif" font-size="18" font-weight="600" fill="#495467">Dry cleaning · Steam press · 6-7 PM</text>
      <rect x="268" y="363" width="160" height="40" rx="20" fill="#DDF7F3" stroke="#DDF7F3"/>
  <text x="348" y="388" text-anchor="middle" font-family="Sora, Inter, Arial, sans-serif" font-size="15" font-weight="700" fill="#0FB5A6">Available today</text>
      <rect x="486" y="348" width="128" height="46" rx="14" fill="#6C63E8"/>
      <text x="550" y="378" text-anchor="middle" font-family="Sora, Inter, Arial, sans-serif" font-size="15" font-weight="800" fill="#FFFFFF">Selected</text>
    </g>
  </svg>