<svg xmlns="http://www.w3.org/2000/svg" width="1040" height="280" viewBox="0 0 1040 280">
  <defs>
    <filter id="softShadow" x="-30%" y="-30%" width="160%" height="160%">
      <feDropShadow dx="0" dy="18" stdDeviation="18" flood-color="#433791" flood-opacity=".14"/>
    </filter>
    <linearGradient id="violet" x1="0" y1="0" x2="1" y2="1">
      <stop offset="0" stop-color="#6C63E8"/><stop offset="1" stop-color="#5046C8"/>
    </linearGradient>
  </defs>
  
  <path d="M68 156 C200 84 290 212 426 142 C556 76 652 200 790 122 C872 76 936 92 986 50" fill="none" stroke="#6C63E8" stroke-width="5" stroke-linecap="round" stroke-dasharray="10 15"/>
    <g filter="url(#softShadow)">
      <rect x="92" y="132" width="166" height="86" rx="20" fill="#FFFFFF" stroke="#E7E8F0"/>
      <circle cx="127" cy="174" r="20" fill="#EAE8FF"/>
      <path d="M 116 160 h 48 v 42 h -48 z" fill="none" stroke="#6C63E8" stroke-width="3" stroke-linecap="round" stroke-linejoin="round"/>
      <text x="160" y="181" text-anchor="start" font-family="Sora, Inter, Arial, sans-serif" font-size="15" font-weight="800" fill="#080F14">Wash &amp; fold</text>
    </g><g filter="url(#softShadow)">
      <rect x="292" y="84" width="166" height="86" rx="20" fill="#FFFFFF" stroke="#E7E8F0"/>
      <circle cx="327" cy="126" r="20" fill="#EAE8FF"/>
      <path d="M 317 129 q 10 -20 20 0 l 16 18 h -52 z" fill="none" stroke="#6C63E8" stroke-width="3" stroke-linecap="round" stroke-linejoin="round"/>
      <text x="360" y="133" text-anchor="start" font-family="Sora, Inter, Arial, sans-serif" font-size="15" font-weight="800" fill="#080F14">Dry cleaning</text>
    </g><g filter="url(#softShadow)">
      <rect x="504" y="146" width="166" height="86" rx="20" fill="#FFFFFF" stroke="#E7E8F0"/>
      <circle cx="539" cy="188" r="20" fill="#EAE8FF"/>
      <path d="M 527 197 h 48 l -10 -19 h -27 q -11 0 -11 19 z" fill="none" stroke="#6C63E8" stroke-width="3" stroke-linecap="round" stroke-linejoin="round"/>
      <text x="572" y="195" text-anchor="start" font-family="Sora, Inter, Arial, sans-serif" font-size="15" font-weight="800" fill="#080F14">Steam press</text>
    </g><g filter="url(#softShadow)">
      <rect x="716" y="96" width="166" height="86" rx="20" fill="#FFFFFF" stroke="#E7E8F0"/>
      <circle cx="751" cy="138" r="20" fill="#EAE8FF"/>
      <path d="M 736 147 q 25 16 58 0 q -7 20 -58 16 z" fill="none" stroke="#6C63E8" stroke-width="3" stroke-linecap="round" stroke-linejoin="round"/>
      <text x="784" y="145" text-anchor="start" font-family="Sora, Inter, Arial, sans-serif" font-size="15" font-weight="800" fill="#080F14">Shoe care</text>
    </g><g filter="url(#softShadow)">
      <rect x="858" y="150" width="166" height="86" rx="20" fill="#FFFFFF" stroke="#E7E8F0"/>
      <circle cx="893" cy="192" r="20" fill="#EAE8FF"/>
      <path d="M 880 189 h 52 v 32 h -52 z M 893 189 q 13 -22 26 0" fill="none" stroke="#6C63E8" stroke-width="3" stroke-linecap="round" stroke-linejoin="round"/>
      <text x="926" y="199" text-anchor="start" font-family="Sora, Inter, Arial, sans-serif" font-size="15" font-weight="800" fill="#080F14">Bag care</text>
    </g>
  </svg>