<svg xmlns="http://www.w3.org/2000/svg" width="520" height="760" viewBox="0 0 520 760">
  <defs>
    <filter id="softShadow" x="-30%" y="-30%" width="160%" height="160%">
      <feDropShadow dx="0" dy="18" stdDeviation="18" flood-color="#433791" flood-opacity=".14"/>
    </filter>
    <linearGradient id="violet" x1="0" y1="0" x2="1" y2="1">
      <stop offset="0" stop-color="#6C63E8"/><stop offset="1" stop-color="#5046C8"/>
    </linearGradient>
  </defs>
  
  <g filter="url(#softShadow)">
      <rect x="76" y="56" width="106" height="648" rx="42" fill="#FFFFFF" stroke="#E7E8F0"/>
      <circle cx="130" cy="116" r="12" fill="#EAE8FF" stroke="#E7E8F0" stroke-width="2"/>
        <line x1="130" y1="138" x2="130" y2="196" stroke="#E7E8F0" stroke-width="2"/>
        <text x="214" y="122" text-anchor="start" font-family="Sora, Inter, Arial, sans-serif" font-size="22" font-weight="650" fill="#495467">Discover</text><circle cx="130" cy="218" r="12" fill="#EAE8FF" stroke="#E7E8F0" stroke-width="2"/>
        <line x1="130" y1="240" x2="130" y2="298" stroke="#E7E8F0" stroke-width="2"/>
        <text x="214" y="224" text-anchor="start" font-family="Sora, Inter, Arial, sans-serif" font-size="22" font-weight="650" fill="#495467">Choose</text><circle cx="130" cy="320" r="18" fill="#6C63E8" stroke="#6C63E8" stroke-width="2"/>
        <line x1="130" y1="342" x2="130" y2="400" stroke="#E7E8F0" stroke-width="2"/>
        <text x="214" y="326" text-anchor="start" font-family="Sora, Inter, Arial, sans-serif" font-size="22" font-weight="820" fill="#080F14">Compare</text><circle cx="130" cy="422" r="12" fill="#EAE8FF" stroke="#E7E8F0" stroke-width="2"/>
        <line x1="130" y1="444" x2="130" y2="502" stroke="#E7E8F0" stroke-width="2"/>
        <text x="214" y="428" text-anchor="start" font-family="Sora, Inter, Arial, sans-serif" font-size="22" font-weight="650" fill="#495467">Journey</text><circle cx="130" cy="524" r="12" fill="#EAE8FF" stroke="#E7E8F0" stroke-width="2"/>
        <line x1="130" y1="546" x2="130" y2="604" stroke="#E7E8F0" stroke-width="2"/>
        <text x="214" y="530" text-anchor="start" font-family="Sora, Inter, Arial, sans-serif" font-size="22" font-weight="650" fill="#495467">Trust</text><circle cx="130" cy="626" r="12" fill="#EAE8FF" stroke="#E7E8F0" stroke-width="2"/>
        
        <text x="214" y="632" text-anchor="start" font-family="Sora, Inter, Arial, sans-serif" font-size="22" font-weight="650" fill="#495467">Close</text>
    </g>
  </svg>